<svg id="Layer_1" data-name="Layer 1" xmlns="http://www.w3.org/2000/svg" xmlns:xlink="http://www.w3.org/1999/xlink" viewBox="0 0 138 54"><defs><style>.cls-1{fill:#10668e;}.cls-2{fill:#2cace3;}.cls-3{fill:url(#New_Gradient_Swatch_1);}.cls-4{fill:#fff;}.cls-5{fill:none;}</style><linearGradient id="New_Gradient_Swatch_1" x1="148.31" y1="27" x2="-50.41" y2="27" gradientUnits="userSpaceOnUse"><stop offset="0" stop-color="#0b4d99"/><stop offset="0.63" stop-color="#2cace3"/><stop offset="1" stop-color="#fff"/></linearGradient></defs><title>Blou Construction</title><path class="cls-1" d="M137.45,4.94H48.93L17.33,14.13C7.8,14.13,0,16.78,0,20.06H0C0,23.35,7.73,26,17.27,26h.06l8.06.29v1.41L17.33,28h-.06C7.73,28,0,30.65,0,33.93H0c0,3.28,7.8,5.94,17.33,5.94h0l31.61,9.19h0l88.5.12Z"/><path class="cls-2" d="M62.7,38.23h.66v3.21H62.7Z"/><path class="cls-2" d="M64.37,38.23h.69l1.3,2.21V38.23H67v3.21h-.68L65,39.23v2.21h-.65Z"/><path class="cls-2" d="M68.51,40.45c0,.36.29.52.73.52s.58-.14.58-.41-.27-.35-.86-.49a2.16,2.16,0,0,1-.71-.24.8.8,0,0,1-.35-.73c0-.62.43-1,1.24-1s1.19.38,1.21,1h-.63c0-.31-.24-.48-.64-.48s-.54.14-.54.39.25.3.78.44a3.19,3.19,0,0,1,.75.25.76.76,0,0,1,.39.72c0,.66-.46,1.05-1.29,1.05s-1.29-.4-1.32-1.08Z"/><path class="cls-2" d="M72,41.44h-.66V38.23h1.43a1,1,0,0,1,0,2.07H72Zm.64-1.72c.34,0,.5-.13.5-.46a.41.41,0,0,0-.46-.46H72v.93Z"/><path class="cls-2" d="M74.64,38.23h.66v3.21h-.66Z"/><path class="cls-2" d="M76.31,38.23h1.56c.7,0,1,.29,1,.91a.72.72,0,0,1-.48.76c.3.11.38.31.4.7V41c0,.19,0,.3.12.36v.1h-.72a.94.94,0,0,1-.08-.4V40.7c0-.38-.11-.51-.48-.51H77v1.25h-.66Zm1.44,1.4c.34,0,.49-.13.49-.42s-.15-.42-.46-.42H77v.85Z"/><path class="cls-2" d="M79.82,38.23h2.33v.56H80.47v.68H82V40H80.47v.83h1.76v.59H79.82Z"/><path class="cls-2" d="M83.06,38.23h1.26c1,0,1.46.52,1.46,1.61a1.61,1.61,0,0,1-.52,1.32,1.65,1.65,0,0,1-1.12.29H83.06Zm1.18,2.63c.61,0,.87-.3.87-1s-.25-1-.79-1h-.61v2.07Z"/><path class="cls-2" d="M89.6,41.53c-.95,0-1.51-.62-1.51-1.69s.55-1.69,1.56-1.69A1.2,1.2,0,0,1,91,39.29h-.65a.63.63,0,0,0-.71-.56c-.58,0-.89.38-.89,1.1s.32,1.09.87,1.09a.69.69,0,0,0,.74-.59H91A1.28,1.28,0,0,1,89.6,41.53Z"/><path class="cls-2" d="M91.87,38.23h1.56c.7,0,1,.29,1,.91a.72.72,0,0,1-.48.76c.3.11.38.31.4.7V41c0,.19,0,.3.12.36v.1H93.8a.94.94,0,0,1-.08-.4V40.7c0-.38-.11-.51-.48-.51h-.7v1.25h-.66Zm1.44,1.4c.34,0,.49-.13.49-.42s-.15-.42-.46-.42h-.81v.85Z"/><path class="cls-2" d="M97,38.23l1.16,3.21h-.69l-.22-.66H96l-.21.66h-.7l1.14-3.21Zm-.83,2H97l-.45-1.37Z"/><path class="cls-2" d="M98.77,38.23H101v.56H99.43v.73h1.39v.56H99.43v1.37h-.65Z"/><path class="cls-2" d="M102.52,38.8h-1v-.57h2.56v.57h-.95v2.64h-.66Z"/><path class="cls-2" d="M104.83,38.23h1l.64,2.44.63-2.44h1v3.21h-.62V38.85l-.65,2.59h-.67l-.66-2.59v2.59h-.62Z"/><path class="cls-2" d="M110.62,38.23l1.16,3.21h-.69l-.22-.66h-1.25l-.21.66h-.7l1.14-3.21Zm-.83,2h.89l-.45-1.37Z"/><path class="cls-2" d="M112.43,38.23h.69l1.3,2.21V38.23h.65v3.21h-.68l-1.31-2.21v2.21h-.65Z"/><path class="cls-2" d="M116.57,40.45c0,.36.29.52.73.52s.58-.14.58-.41-.27-.35-.86-.49a2.16,2.16,0,0,1-.71-.24.8.8,0,0,1-.35-.73c0-.62.43-1,1.24-1s1.19.38,1.21,1h-.63c0-.31-.24-.48-.64-.48s-.54.14-.54.39.25.3.78.44a3.19,3.19,0,0,1,.75.25.76.76,0,0,1,.39.72c0,.66-.46,1.05-1.29,1.05s-1.29-.4-1.32-1.08Z"/><path class="cls-2" d="M119.37,38.23H120v1.2h1.33v-1.2H122v3.21h-.67V40H120v1.42h-.67Z"/><path class="cls-2" d="M123,38.23h.66v3.21H123Z"/><path class="cls-2" d="M125.37,41.44h-.66V38.23h1.43a1,1,0,0,1,0,2.07h-.81Zm.64-1.72c.34,0,.5-.13.5-.46a.41.41,0,0,0-.46-.46h-.68v.93Z"/><path class="cls-3" d="M47,27a11.66,11.66,0,0,0,6.37-11.05,17.83,17.83,0,0,0-1-6.14,11.43,11.43,0,0,0-3.46-4.87,17.65,17.65,0,0,0-6.57-3.25A38.14,38.14,0,0,0,31.91.5H17.33C7.8.5,0,3.16,0,6.44H0V20.07c0-3.28,7.79-5.94,17.33-5.94H32a6.19,6.19,0,0,1,3.86,1A3.35,3.35,0,0,1,37,17.85a3.15,3.15,0,0,1-1.18,2.65,6.39,6.39,0,0,1-3.86.91H24.26V32.59H32a6.39,6.39,0,0,1,3.86.91A3.15,3.15,0,0,1,37,36.15a3.35,3.35,0,0,1-1.18,2.77,6.19,6.19,0,0,1-3.86,1H17.33C7.79,39.87,0,37.21,0,33.93V47.56H0c0,3.28,7.8,5.94,17.33,5.94H31.91a38.14,38.14,0,0,0,10.35-1.19,17.65,17.65,0,0,0,6.57-3.25,11.43,11.43,0,0,0,3.46-4.87,17.83,17.83,0,0,0,1-6.14A11.66,11.66,0,0,0,47,27Z"/><path class="cls-4" d="M103.27,22H92.09a3.72,3.72,0,0,0-3.71,3.71v5a3.72,3.72,0,0,0,3.71,3.71h11.18A3.72,3.72,0,0,0,107,30.7v-5A3.72,3.72,0,0,0,103.27,22Zm-.51,8.41H92.6V26h10.15Z"/><rect class="cls-4" x="82.73" y="13.13" width="4.23" height="21.28"/><path class="cls-4" d="M77.59,22H67V13.13H62.7V34.42H77.59A3.72,3.72,0,0,0,81.3,30.7v-5A3.72,3.72,0,0,0,77.59,22Zm-.51,8.42H66.93V26H77.08Z"/><rect class="cls-4" x="66.93" y="26" width="0.05" height="4.39"/><rect class="cls-5" x="112.79" y="21.98" width="10.15" height="8.41"/><path class="cls-4" d="M122.94,30.39H112.79V22h-4.23V30.7a3.72,3.72,0,0,0,3.71,3.71h11.18a3.72,3.72,0,0,0,3.71-3.71V22h-4.23Z"/></svg>