<svg xmlns="http://www.w3.org/2000/svg" viewBox="0 0 132 48"><defs><style>.cls-1{opacity:.6}.cls-2{fill:#231f20}.cls-3{fill:#96cc29}</style></defs><title>TastyDigital-logo</title><g id="Tasty-word"><path id="TASTY-2" data-name="TASTY" class="cls-3" d="M112.57 48a1.07 1.07 0 0 1-.81-.24 1 1 0 0 1-.17-.81 21.44 21.44 0 0 1 .78-3.59c.13-.46.25-.9.36-1.34a149.79 149.79 0 0 1 6.06-18.11l-.52-.38c-3 2.5-6.45 5.34-10 7.06a7.36 7.36 0 0 1-3.07.86 2.56 2.56 0 0 1-1.64-.51 3.14 3.14 0 0 1-1-2.94 13.64 13.64 0 0 1 1.32-3.85l2-3.64-.5-.42c-3.14 2.59-8.17 5.51-12.61 8.08-1.6.93-3.15 1.83-4.53 2.66a8.28 8.28 0 0 1-3.54.59h-.2a2.2 2.2 0 0 1-2.3-2.18 3.64 3.64 0 0 1 .35-1.55c1.61-3.91 3-7 4.37-10 1.5-3.3 3-5.9 4.43-9.62H29.84l-7.71 18.84.64-.17c1.68-.45 5.73-2.7 9-5a34.91 34.91 0 0 0 4.8-4.07c.72-.7 1.47-1.43 2.4-2.23a12.37 12.37 0 0 1 7.9-3.08h.85a10.49 10.49 0 0 1 4.77 1.42l.17.1c.68.41 1.81 1.11 1.88 1.74a.71.71 0 0 1-.26.58.91.91 0 0 1-.64.17 8.17 8.17 0 0 1-1.48-.22c-.3-.06-.59-.12-.86-.16a10.5 10.5 0 0 0-1.48-.09 12 12 0 0 0-3.34.43A12.87 12.87 0 0 0 41.89 20c-1.05 1.31-2 4.08-.81 5.65a1.12 1.12 0 0 0 .86.34c2.26 0 7.73-4.38 7.78-4.42s.45-.41.76-.7c1-1 2.8-2.67 4-2.67a.83.83 0 0 1 .52.16c.51.38.16 1.08-.34 2a6.37 6.37 0 0 0-.32.6 6.79 6.79 0 0 0-.34 3.29c.23 2 1.71 4.7 3.89 4.7h2.79c2.22 0 3.61 0 4.38-.06h.89a8.91 8.91 0 0 0 3.67-.64 1.32 1.32 0 0 0 .66-1.08c0-1.25-1.65-2.6-1.84-2.75a21.38 21.38 0 0 0-3-1.77A20.92 20.92 0 0 1 62.67 21c-1-.83-2.09-1.89-2-3.48.08-2 2.07-3.27 4.2-4.3 1.9-.91 5.68-1.28 7.76-1.31h.15a14.7 14.7 0 0 1 7.41 2c.85.54 2.31 2.23 2.36 3.12a.36.36 0 0 1-.11.34.56.56 0 0 1-.37.12 6.37 6.37 0 0 1-2.49-1.13L79 16a6.59 6.59 0 0 0-3-.65 4.56 4.56 0 0 0-1.87.34 5 5 0 0 0-2.86 3 4.1 4.1 0 0 0 .7 3.41 10.82 10.82 0 0 0 3.5 3l.91.59a3.52 3.52 0 0 1 1.26 3.7c-.59 1.52-3 1.69-4.81 1.69h-2.35l-16.57.05c-2.41 0-7-.85-7.22-4.07v-.62l-1 .8c-2.35 1.86-5.28 4.18-8.21 4.18a5.34 5.34 0 0 1-.6 0 5.91 5.91 0 0 1-4.11-2.61 4.17 4.17 0 0 1-.55-3.58l.31-1-.82.61c-3.44 2.53-8.41 5.69-13.39 6.77a4.31 4.31 0 0 1-1 .1c-1.57 0-3.51-.63-4-1.8a4.75 4.75 0 0 1 .3-3.48c1.4-3.58 2.51-6.32 3.58-9s2.24-5.57 3.64-9.17l.35-.16H2.85c-.54 0-1.4-1.2-2-2.67l-.08-.26a10 10 0 0 1-.66-2.11C0 2.3-.07 1.76.2 1.45A1.94 1.94 0 0 1 1.68 1h126.57c.9 0 1.08.39 1.56 1.44.1.22.21.45.33.71L131.37 6a4.12 4.12 0 0 1-.53 1.68.73.73 0 0 1-.56.26H99.49l-.1.16a13.22 13.22 0 0 0-1.14 2.85c-1 2.14-2 4.57-3 6.91s-2 4.75-3 6.94l-.46 1 .94-.6 2.75-1.72c2.41-1.49 4.9-3 6.63-4.35l1.54-1.1a43 43 0 0 0 6-4.82 6.56 6.56 0 0 1 3.34-.87 8.38 8.38 0 0 1 3.47.79c-.73 1.78-1.42 3.43-2.11 5.08s-1.45 3.48-2.22 5.37l-.43 1 .92-.64A55.21 55.21 0 0 0 123 15.12a5.35 5.35 0 0 1 4-1.37h.56c.35 0 .77-.05 1.19-.05 1.09 0 1.42.21 1.51.33a.35.35 0 0 1 0 .33c-.16.58-.51 1.48-.79 2.21l-1.22 3.19q-.92 2.41-1.82 4.83c-2.16 5.81-4.4 12.23-6.84 19.62-.61 1.83-2.47 3-5.7 3.65a7.18 7.18 0 0 1-1.32.14z"/></g><g id="Digital-word"><g id="DIGITAL-2" data-name="DIGITAL" class="cls-1"><path class="cls-2" d="M11 37.1h9.07c3 0 4.06 1 4.06 3.41v3c0 2.42-1.06 3.41-4.06 3.41H11zm3 7.29h5.34c1.29 0 1.79-.37 1.79-1.76V41.3c0-1.4-.5-1.76-1.79-1.76h-5.29zM29.08 37.1h3v9.81h-3zM37.1 40.54c0-2.87 1.61-3.55 4.32-3.55h4.52c3.41 0 3.89 1.23 3.89 3.14V40h-3c0-.56-.56-.62-1.52-.62H42.1c-1.52 0-1.91.37-1.91 2v1.22c0 1.68.39 2 1.91 2h3.21c.79 0 1.57-.12 1.57-1.07l.06-.71H43.2L43.14 41h6.74v3.06c0 2.82-1.46 3-4.85 3h-3.61c-2.71 0-4.32-.68-4.32-3.55zM55.17 37.1h3v9.81h-3zM63 37.1h11.43v2.44h-4.22v7.37h-3v-7.37H63zM82.33 37.1h3.91l5.39 9.81h-3.34l-.93-1.73h-6.1l-.88 1.73H77zm.05 6h3.85l-2-3.68zM96.23 37.1h3v7.29H106v2.52h-9.77z"/></g></g></svg>